<svg width="375" height="250" viewBox="0 0 375 250" fill="none" xmlns="http://www.w3.org/2000/svg">
<mask id="path-1-inside-1_42_30" fill="white">
<path d="M43.2693 132.205C43.2693 132.574 43.2791 132.94 43.2889 133.302H60.4647C60.4392 132.923 60.4261 132.543 60.4254 132.163C60.4254 122.556 67.3876 115.602 76.2113 115.602C85.0369 115.602 91.9972 122.556 91.9972 132.163C91.9972 132.548 91.9824 132.926 91.9628 133.302H109.139C109.148 132.94 109.158 132.574 109.158 132.205C109.158 113.297 94.6325 99.1824 76.2157 99.1824C57.8009 99.1824 43.2732 113.297 43.2732 132.205"/>
</mask>
<path d="M43.2693 132.205C43.2693 132.574 43.2791 132.94 43.2889 133.302H60.4647C60.4392 132.923 60.4261 132.543 60.4254 132.163C60.4254 122.556 67.3876 115.602 76.2113 115.602C85.0369 115.602 91.9972 122.556 91.9972 132.163C91.9972 132.548 91.9824 132.926 91.9628 133.302H109.139C109.148 132.94 109.158 132.574 109.158 132.205C109.158 113.297 94.6325 99.1824 76.2157 99.1824C57.8009 99.1824 43.2732 113.297 43.2732 132.205" fill="white"/>
<path d="M43.2889 133.302L42.2893 133.329L42.3157 134.302H43.2889V133.302ZM60.4647 133.302V134.302H61.5343L61.4625 133.235L60.4647 133.302ZM60.4254 132.163H59.4254L59.4254 132.165L60.4254 132.163ZM91.9628 133.302L90.9641 133.25L90.9091 134.302H91.9628V133.302ZM109.139 133.302V134.302H110.112L110.138 133.329L109.139 133.302ZM42.2693 132.205C42.2693 132.59 42.2795 132.969 42.2893 133.329L44.2886 133.275C44.2787 132.911 44.2693 132.558 44.2693 132.205H42.2693ZM43.2889 134.302H60.4647V132.302H43.2889V134.302ZM61.4625 133.235C61.4384 132.877 61.426 132.519 61.4254 132.161L59.4254 132.165C59.4261 132.567 59.44 132.968 59.467 133.369L61.4625 133.235ZM61.4254 132.163C61.4254 123.077 67.9708 116.602 76.2113 116.602V114.602C66.8043 114.602 59.4254 122.036 59.4254 132.163H61.4254ZM76.2113 116.602C84.4536 116.602 90.9972 123.077 90.9972 132.163H92.9972C92.9972 122.036 85.6203 114.602 76.2113 114.602V116.602ZM90.9972 132.163C90.9972 132.523 90.9834 132.882 90.9641 133.25L92.9614 133.354C92.9815 132.97 92.9972 132.573 92.9972 132.163H90.9972ZM91.9628 134.302H109.139V132.302H91.9628V134.302ZM110.138 133.329C110.148 132.969 110.158 132.59 110.158 132.205H108.158C108.158 132.558 108.149 132.911 108.139 133.275L110.138 133.329ZM110.158 132.205C110.158 112.738 95.1782 98.1824 76.2157 98.1824V100.182C94.0868 100.182 108.158 113.856 108.158 132.205H110.158ZM76.2157 98.1824C57.2552 98.1824 42.2732 112.738 42.2732 132.205H44.2732C44.2732 113.856 58.3465 100.182 76.2157 100.182V98.1824Z" fill="black" mask="url(#path-1-inside-1_42_30)"/>
<path d="M263.891 141.971V143.669H268.77C268.77 146.718 265.762 148.808 262.911 148.808C261.19 148.808 259.448 147.916 258.251 146.718C257.031 145.475 256.334 143.82 256.334 142.078C256.334 138.378 259.296 135.22 263.041 135.22C265.457 135.22 267.31 136.373 268.681 138.312L270.01 137.071C268.269 134.806 265.937 133.52 263.064 133.52C258.337 133.52 254.504 137.352 254.504 142.056C254.504 146.673 258.337 150.505 262.955 150.505C265.241 150.505 267.527 149.505 269.029 147.763C270.532 146.02 270.773 144.191 270.73 141.971H263.891ZM173.603 140.962H164.892V133.902H163.067V150.262H164.892V142.655H173.603V150.262H175.426V133.902H173.603V140.962ZM186.83 148.852C183.119 148.852 180.308 145.873 180.308 142.082C180.308 138.268 183.076 135.313 186.83 135.313C190.584 135.313 193.352 138.268 193.352 142.082C193.352 145.873 190.541 148.852 186.83 148.852ZM186.83 133.619C182.112 133.619 178.395 137.314 178.395 142.105C178.395 146.916 182.112 150.546 186.83 150.546C191.546 150.546 195.267 146.916 195.267 142.105C195.267 137.314 191.546 133.619 186.83 133.619ZM200.084 142.568H206.368V140.874H200.084V135.593H206.746V133.902H198.26V150.263H206.928V148.57H200.084V142.568ZM223.288 146.391L210.529 133.39V150.263H212.352V137.838L225.112 150.818V133.902H223.288V146.391ZM229.197 150.263H231.02V133.901H229.197V150.263ZM247.051 133.902H244.85L240.828 140.247L236.803 133.902H234.602L239.68 141.8L234.13 150.263H236.33L240.828 143.355L245.323 150.263H247.525L241.973 141.8L247.051 133.902ZM294.93 148.852C291.219 148.852 288.408 145.873 288.408 142.084C288.408 138.269 291.176 135.313 294.93 135.313C298.684 135.313 301.452 138.269 301.452 142.084C301.452 145.873 298.643 148.852 294.93 148.852ZM294.93 133.621C290.216 133.621 286.493 137.316 286.493 142.105C286.493 146.918 290.216 150.546 294.93 150.546C299.648 150.546 303.367 146.918 303.367 142.105C303.367 137.316 299.648 133.621 294.93 133.621ZM316.075 143.646C316.075 144.926 316.141 146.356 315.271 147.4C314.511 148.311 313.232 148.852 312.061 148.852C310.866 148.852 309.478 148.291 308.761 147.291C308.003 146.251 308.045 144.861 308.045 143.646V133.903H306.223V144.145C306.223 146.01 306.398 147.509 307.828 148.875C308.936 149.961 310.52 150.546 312.061 150.546C313.709 150.546 315.336 149.896 316.465 148.679C317.766 147.334 317.898 145.923 317.898 144.145V133.903H316.075V143.646ZM275.975 135.596H278.076C280.201 135.596 282.35 135.79 282.35 138.457C282.35 140.804 280.636 141.411 278.62 141.411H275.975V135.596ZM282.61 142.019C283.631 141.172 284.173 139.827 284.173 138.504C284.173 137.048 283.544 135.619 282.329 134.771C281.135 133.946 279.681 133.903 278.27 133.903H274.152V150.262H275.975V143.102H277.656L282.586 150.262H284.742L279.643 143.068C280.707 142.986 281.75 142.726 282.61 142.019ZM154.356 141.412H151.713V135.597H153.813C155.938 135.597 158.088 135.789 158.088 138.458C158.088 140.803 156.373 141.412 154.356 141.412ZM158.067 134.772C156.871 133.947 155.418 133.903 154.008 133.903H149.891V150.263H151.713V143.103H154.463C155.831 143.103 157.242 142.93 158.348 142.018C159.368 141.172 159.911 139.826 159.911 138.503C159.911 137.049 159.28 135.617 158.067 134.772ZM326.18 141.412H323.537V135.597H325.637C327.762 135.597 329.913 135.789 329.913 138.458C329.913 140.803 328.197 141.412 326.18 141.412ZM329.89 134.772C328.695 133.947 327.242 133.903 325.831 133.903H321.713V150.263H323.537V143.103H326.287C327.653 143.103 329.065 142.93 330.171 142.018C331.19 141.172 331.733 139.826 331.733 138.503C331.733 137.049 331.105 135.617 329.89 134.772ZM43.2705 133.919V150.269H139.744V133.919H43.2722H43.2705Z" fill="white"/>
</svg>
