<svg width="274" height="178" viewBox="0 0 274 178" fill="none" xmlns="http://www.w3.org/2000/svg">
<path opacity="0.6" d="M49.8789 67.8589C41.4192 67.89 33.8587 73.4596 32.024 81.6411C31.7521 82.8577 31.6197 84.0716 31.6155 85.2692V85.36C31.635 93.4819 37.6006 100.833 46.3015 102.675C56.3171 104.796 66.1626 98.8183 68.2928 89.3227C68.5633 88.1142 68.6957 86.9085 68.7013 85.7203V85.5537C68.6581 77.4467 62.6967 70.1254 54.0139 68.2856C52.67 68.0011 51.3302 67.8616 50.0085 67.8589H49.8789ZM48.3662 100.689C40.9647 99.1232 36.343 91.7098 38.0425 84.1339C39.742 76.5539 47.1184 71.6834 54.5186 73.2509C61.916 74.8184 66.539 82.2318 64.8395 89.8077C63.3547 96.4272 57.5342 100.983 51.1545 100.983C50.2316 100.983 49.3003 100.887 48.3662 100.689Z" fill="url(#paint0_linear_42_34)"/>
<path d="M65.6418 62.2944C59.7041 62.2948 54.0098 64.6007 49.8113 68.7049C45.6127 72.8092 43.2539 78.3757 43.2537 84.18C43.2539 89.9843 45.6127 95.5508 49.8113 99.655C54.0098 103.759 59.7041 106.065 65.6418 106.066C71.5794 106.065 77.2737 103.759 81.4722 99.655C85.6707 95.5507 88.0295 89.9843 88.0298 84.18C88.0295 78.3757 85.6707 72.8093 81.4722 68.705C77.2737 64.6007 71.5794 62.2948 65.6418 62.2944V62.2944ZM67.4497 66.1075C72.1534 66.1079 76.6643 67.7702 79.9901 70.7287C83.3159 73.6871 85.1843 77.6995 85.1843 81.8832C85.1843 86.0669 83.3159 90.0793 79.9901 93.0378C76.6643 95.9963 72.1534 97.6586 67.4497 97.659C65.1205 97.6591 62.814 97.2511 60.662 96.4583C58.5101 95.6656 56.5547 94.5036 54.9077 93.0386C53.2606 91.5737 51.9541 89.8346 51.0627 87.9205C50.1713 86.0065 49.7125 83.955 49.7125 81.8832C49.7125 79.8115 50.1713 77.76 51.0627 75.8459C51.9541 73.9319 53.2606 72.1927 54.9077 70.7278C56.5547 69.2629 58.5101 68.1009 60.662 67.3081C62.814 66.5154 65.1205 66.1074 67.4497 66.1075Z" fill="url(#paint1_linear_42_34)"/>
<path opacity="0.6" d="M61.1769 96.6371C58.6089 99.3236 55.0566 100.945 51.291 100.985C52.1024 101.638 52.9501 102.243 53.8479 102.78C57.7724 102.068 61.3373 100.147 63.9834 97.3497C63.0144 97.1871 62.0762 96.9433 61.1769 96.6357" fill="url(#paint2_linear_42_34)"/>
<path opacity="0.98" d="M49.9735 79.193C47.0248 81.4528 44.8346 84.4739 43.5715 87.85C44.1752 91.3386 45.6209 94.5427 47.6954 97.2631C47.7136 97.2888 47.7331 97.3132 47.7526 97.3362C46.6791 93.2163 47.6494 88.8986 50.1673 85.4223C50.1296 85.2773 50.0906 85.1283 50.0571 84.986C49.8285 83.9645 49.713 82.9222 49.7128 81.8768C49.7128 80.9596 49.802 80.0655 49.9749 79.193V79.1794" fill="url(#paint3_linear_42_34)"/>
<path opacity="0.6" d="M50.7111 67.8765C48.6115 69.7122 46.8646 71.934 45.6001 74.4228C47.7903 73.32 50.2705 72.7943 52.8023 73.0002C53.9315 71.5195 55.3452 70.2229 56.9624 69.1608C56.027 68.8004 55.0371 68.5064 54.0166 68.287C52.9305 68.0607 51.8445 67.9225 50.771 67.8765" fill="url(#paint4_linear_42_34)"/>
<path opacity="0.98" d="M62.2685 75.0283C59.7967 75.0283 57.2928 75.4781 54.8698 76.4265C53.0658 77.1309 51.4262 78.0671 49.9749 79.1916V79.2051C49.802 80.0776 49.7128 80.9772 49.7128 81.8889C49.7128 82.9565 49.8327 83.9929 50.0572 84.9968C50.0906 85.1404 50.1297 85.2908 50.1673 85.4344C51.9588 82.9497 54.5477 80.8972 57.7348 79.6481C66.0328 76.4021 75.2774 79.8486 78.3905 87.3568C79.2326 89.3782 79.5421 91.4943 79.3804 93.5604C79.0276 98.0298 76.4973 102.293 72.418 105.041C71.3779 105.745 70.2333 106.352 69.0079 106.83C60.7071 110.078 51.4583 106.626 48.3493 99.1231C48.1087 98.546 47.9093 97.9535 47.7526 97.3497C47.7331 97.3253 47.7136 97.3009 47.6955 97.2752C45.5738 94.4983 44.1605 91.2718 43.5716 87.8608C41.8693 92.4007 41.8303 97.5868 43.8532 102.475C47.1044 110.323 54.7499 115.137 62.7816 115.214H63.1552C65.5671 115.192 68.0069 114.742 70.3686 113.817C77.2445 111.126 81.7267 105.096 82.7221 98.3306C83.1 95.7782 82.9787 93.1174 82.3025 90.4972C82.0626 89.571 81.7584 88.6617 81.3921 87.7755C78.1103 79.8649 70.37 75.0351 62.2685 75.0351" fill="url(#paint5_linear_42_34)"/>
<path d="M163.601 83.9541L157.121 100.052L150.638 83.9541H146.955L154.702 101.875L155.004 102.557L155.433 103.57C155.043 104.85 154.4 105.575 154.34 105.637C154.291 105.681 154.258 105.712 154.224 105.771C154.224 105.771 154.214 105.785 154.214 105.786C153.653 106.477 153.036 106.92 152.441 107.092C152.04 107.212 151.621 107.229 151.17 107.117C150.644 106.984 150.072 106.686 149.472 106.229L147.605 108.575C149.129 109.741 150.535 110.128 151.676 110.158C152.303 110.176 152.872 110.07 153.326 109.935C154.63 109.55 155.801 108.682 156.796 107.378C156.853 107.323 156.903 107.261 156.944 107.194C157.05 107.056 157.162 106.903 157.263 106.737C157.346 106.618 157.425 106.498 157.502 106.353C157.601 106.164 157.712 105.992 157.793 105.797C157.835 105.742 157.866 105.681 157.901 105.605C157.926 105.53 157.979 105.433 158.022 105.347L158.159 104.983L158.743 103.677L167.283 83.9541H163.601ZM101.4 79.7085H108.95C111.277 79.7085 113.807 81.8517 113.807 84.6304C113.807 87.4443 111.277 89.5482 108.95 89.5076L100.697 89.5482V92.5613H108.95C113.481 92.5613 117.482 89.3477 117.482 84.6304C117.482 79.8277 113.4 76.6548 108.95 76.6548H97.8486V103.114H101.4" fill="white"/>
<path d="M128.236 86.0558C124.195 86.0558 121.624 89.3885 121.624 93.5125C121.624 97.6392 124.195 101.01 128.236 101.01C132.317 101.01 134.849 97.6784 134.849 93.5125C134.849 89.3885 132.317 86.0558 128.236 86.0558ZM128.236 103.629C122.439 103.629 118.236 99.1077 118.236 93.5125C118.236 87.9619 122.439 83.4004 128.236 83.4004C134.072 83.4004 138.235 87.9619 138.235 93.5125C138.235 99.1077 134.072 103.629 128.236 103.629Z" fill="white"/>
<path d="M141.444 103.114L141.404 76.6548H144.669L144.711 103.114H141.444ZM176.969 103.765C171.173 103.765 166.968 99.2424 166.968 93.6485C166.968 88.0966 171.173 83.535 176.969 83.535C179.42 83.535 181.826 83.932 184.723 86.8272L182.561 88.8878C180.725 86.9057 179.092 86.1918 176.969 86.1918C172.928 86.1918 170.356 89.5232 170.356 93.6485C170.356 97.7752 172.928 101.147 176.969 101.147C179.092 101.147 180.725 100.393 182.561 98.3699L184.723 100.471C181.826 103.33 179.42 103.765 176.969 103.765Z" fill="white"/>
<path d="M232.706 103.114V90.6186C232.706 87.5229 231.402 86.0557 228.951 86.0557C226.87 86.0557 225.279 87.6435 224.218 88.9115V103.114H220.95V90.6186C220.95 87.5229 219.605 86.0557 217.196 86.0557C215.074 86.0557 213.522 87.6435 212.421 88.9115V103.114H209.153V83.9544H212.421V86.3347C213.317 85.2631 214.951 83.3989 218.135 83.3989C220.992 83.3989 222.828 84.667 223.646 87.0081C224.829 85.3823 226.707 83.3989 229.931 83.3989C233.931 83.3989 235.974 86.0137 235.974 90.6186V103.114H232.706ZM239.387 84.7435V87.1415H239.011V84.4184H240.154C240.628 84.4184 241.046 84.7435 241.046 85.2448C241.046 85.8545 240.503 86.0441 240.335 86.0441L241.088 87.1415H240.614L239.889 86.0577H239.276V85.7325H240.154C240.391 85.7325 240.656 85.5293 240.656 85.2448C240.656 84.9468 240.391 84.7435 240.154 84.7435H239.387ZM237.854 85.7732C237.854 86.8841 238.788 87.8054 239.945 87.8054C241.102 87.8054 242.022 86.8841 242.022 85.7732C242.022 84.6352 241.102 83.741 239.945 83.741C238.788 83.741 237.854 84.6352 237.854 85.7732ZM237.505 85.7732C237.505 84.4455 238.593 83.4023 239.945 83.4023C241.297 83.4023 242.385 84.4455 242.385 85.7732C242.385 87.0738 241.297 88.1441 239.945 88.1441C238.593 88.1441 237.505 87.0738 237.505 85.7732Z" fill="white"/>
<defs>
<linearGradient id="paint0_linear_42_34" x1="38.3749" y1="98.9775" x2="61.2164" y2="71.3835" gradientUnits="userSpaceOnUse">
<stop stop-color="#94A9BB"/>
<stop offset="0.1227" stop-color="#94A9BB"/>
<stop offset="1" stop-color="#94A9BB" stop-opacity="0.5294"/>
</linearGradient>
<linearGradient id="paint1_linear_42_34" x1="43.3714" y1="81.9054" x2="87.8822" y2="86.7196" gradientUnits="userSpaceOnUse">
<stop stop-color="#D11C23"/>
<stop offset="0.5518" stop-color="#D11C23"/>
<stop offset="1" stop-color="#A91317"/>
</linearGradient>
<linearGradient id="paint2_linear_42_34" x1="54.3509" y1="103.516" x2="61.2968" y2="95.1253" gradientUnits="userSpaceOnUse">
<stop stop-color="#94A9BB"/>
<stop offset="0.1227" stop-color="#94A9BB"/>
<stop offset="1" stop-color="#94A9BB" stop-opacity="0.5294"/>
</linearGradient>
<linearGradient id="paint3_linear_42_34" x1="49.8383" y1="96.647" x2="44.5997" y2="80.9909" gradientUnits="userSpaceOnUse">
<stop stop-color="#94A9BB"/>
<stop offset="1" stop-color="#94A9BB" stop-opacity="0.5725"/>
</linearGradient>
<linearGradient id="paint4_linear_42_34" x1="47.2651" y1="75.801" x2="54.4704" y2="67.0965" gradientUnits="userSpaceOnUse">
<stop stop-color="#94A9BB"/>
<stop offset="0.1227" stop-color="#94A9BB"/>
<stop offset="1" stop-color="#94A9BB" stop-opacity="0.5294"/>
</linearGradient>
<linearGradient id="paint5_linear_42_34" x1="68.8118" y1="114.358" x2="55.9855" y2="76.0252" gradientUnits="userSpaceOnUse">
<stop stop-color="#94A9BB"/>
<stop offset="1" stop-color="#94A9BB" stop-opacity="0.5725"/>
</linearGradient>
</defs>
</svg>
