<svg width="277" height="185" viewBox="0 0 277 185" fill="none" xmlns="http://www.w3.org/2000/svg">
<path fill-rule="evenodd" clip-rule="evenodd" d="M245.038 93.9823C245.038 78.8028 237.699 66.8252 223.671 66.8252C209.585 66.8252 201.062 78.8028 201.062 93.8637C201.062 111.711 211.123 120.724 225.565 120.724C232.609 120.724 237.936 119.123 241.96 116.87V105.011C237.936 107.027 233.319 108.272 227.459 108.272C221.718 108.272 216.628 106.256 215.977 99.2595H244.92C244.92 98.4887 245.038 95.4053 245.038 93.9823ZM215.799 88.3492C215.799 81.6489 219.883 78.8621 223.612 78.8621C227.223 78.8621 231.07 81.6489 231.07 88.3492H215.799Z" fill="white"/>
<path fill-rule="evenodd" clip-rule="evenodd" d="M178.215 66.8252C172.414 66.8252 168.686 69.5528 166.614 71.4502L165.845 67.7739H152.823V136.912L167.62 133.769L167.679 116.989C169.81 118.53 172.947 120.724 178.156 120.724C188.75 120.724 198.398 112.186 198.398 93.3893C198.339 76.1938 188.573 66.8252 178.215 66.8252ZM174.664 107.679C171.172 107.679 169.1 106.434 167.679 104.892L167.62 82.8941C169.159 81.1745 171.29 79.9887 174.664 79.9887C180.05 79.9887 183.779 86.0367 183.779 93.8044C183.779 101.75 180.109 107.679 174.664 107.679Z" fill="white"/>
<path fill-rule="evenodd" clip-rule="evenodd" d="M147.319 48.0881L132.463 51.2308V63.3269L147.319 60.125V48.0881Z" fill="white"/>
<path fill-rule="evenodd" clip-rule="evenodd" d="M132.463 67.8333H147.319V119.716H132.463V67.8333Z" fill="white"/>
<path fill-rule="evenodd" clip-rule="evenodd" d="M116.541 72.2212L115.594 67.8334H102.81V119.716H117.607V84.5545C121.099 79.9888 127.018 80.8189 128.852 81.4712V67.8334C126.958 67.1218 120.033 65.8173 116.541 72.2212Z" fill="white"/>
<path fill-rule="evenodd" clip-rule="evenodd" d="M86.9471 54.9663L72.5052 58.0496L72.446 105.545C72.446 114.32 79.0159 120.784 87.7757 120.784C92.6292 120.784 96.1804 119.894 98.1336 118.827V106.79C96.2396 107.561 86.8879 110.288 86.8879 101.513V80.4631H98.1336V67.8333H86.8879L86.9471 54.9663Z" fill="white"/>
<path fill-rule="evenodd" clip-rule="evenodd" d="M46.936 82.8941C46.936 80.5816 48.83 79.6922 51.967 79.6922C56.4653 79.6922 62.1473 81.056 66.6456 83.4871V69.5528C61.733 67.596 56.8796 66.8252 51.967 66.8252C39.9518 66.8252 31.9614 73.1105 31.9614 83.6056C31.9614 99.971 54.4529 97.3621 54.4529 104.418C54.4529 107.146 52.0853 108.035 48.7708 108.035C43.8582 108.035 37.5843 106.019 32.6125 103.292V117.404C38.117 119.776 43.6806 120.784 48.7708 120.784C61.0819 120.784 69.5458 114.676 69.5458 104.062C69.4866 86.3925 46.936 89.5351 46.936 82.8941Z" fill="white"/>
</svg>
