<svg width="197" height="38" viewBox="0 0 197 38" fill="none" xmlns="http://www.w3.org/2000/svg">
<path d="M3 16.5C1.61929 16.5 0.5 17.6193 0.5 19C0.5 20.3807 1.61929 21.5 3 21.5V16.5ZM195.768 20.7678C196.744 19.7915 196.744 18.2085 195.768 17.2322L179.858 1.32233C178.882 0.34602 177.299 0.34602 176.322 1.32233C175.346 2.29864 175.346 3.88155 176.322 4.85786L190.464 19L176.322 33.1421C175.346 34.1184 175.346 35.7014 176.322 36.6777C177.299 37.654 178.882 37.654 179.858 36.6777L195.768 20.7678ZM3 21.5H194V16.5H3V21.5Z" fill="url(#paint0_linear_35_121)"/>
<defs>
<linearGradient id="paint0_linear_35_121" x1="194" y1="19" x2="3" y2="19" gradientUnits="userSpaceOnUse">
<stop stop-color="#FF0000"/>
<stop offset="0.708333" stop-color="#111111"/>
</linearGradient>
</defs>
</svg>
