<svg width="33" height="32" viewBox="0 0 33 32" fill="none" xmlns="http://www.w3.org/2000/svg">
<g clip-path="url(#clip0_12_318)">
<path d="M28.0635 5.98914C26.0214 5.06914 23.8324 4.38914 21.5434 4.00247C21.523 3.99856 21.5019 4.00108 21.483 4.00968C21.4641 4.01828 21.4484 4.03253 21.4379 4.05047C21.1577 4.54247 20.8453 5.1838 20.6264 5.69047C18.1987 5.32812 15.7305 5.32812 13.3028 5.69047C13.059 5.12895 12.7841 4.58143 12.4793 4.05047C12.469 4.03231 12.4533 4.01774 12.4345 4.00868C12.4156 3.99963 12.3945 3.99653 12.3738 3.9998C10.0861 4.38647 7.89719 5.06647 5.85373 5.9878C5.83615 5.99517 5.82124 6.00773 5.81102 6.0238C1.65736 12.1238 0.518843 18.0731 1.07809 23.9478C1.07965 23.9622 1.08412 23.9761 1.09123 23.9887C1.09834 24.0013 1.10795 24.0124 1.11947 24.0211C3.54385 25.7844 6.24792 27.1276 9.11846 27.9945C9.13847 28.0006 9.15987 28.0006 9.17987 27.9944C9.19987 27.9882 9.21754 27.9762 9.23057 27.9598C9.84828 27.1346 10.3956 26.2591 10.8669 25.3425C10.8735 25.3299 10.8773 25.3161 10.878 25.302C10.8787 25.2879 10.8764 25.2738 10.8713 25.2607C10.8661 25.2475 10.8581 25.2356 10.8479 25.2258C10.8377 25.216 10.8256 25.2085 10.8122 25.2038C9.95 24.8794 9.11457 24.488 8.31362 24.0331C8.29923 24.0249 8.2871 24.0133 8.27833 23.9992C8.26955 23.9852 8.2644 23.9692 8.26335 23.9527C8.26229 23.9362 8.26535 23.9196 8.27226 23.9046C8.27917 23.8895 8.28972 23.8764 8.30294 23.8665C8.47112 23.7425 8.63929 23.6131 8.79946 23.4838C8.81388 23.4722 8.83124 23.4648 8.84962 23.4624C8.868 23.4601 8.88668 23.4628 8.90357 23.4705C14.145 25.8225 19.8216 25.8225 25.0017 23.4705C25.0186 23.4624 25.0375 23.4592 25.0561 23.4614C25.0747 23.4635 25.0924 23.4708 25.1071 23.4825C25.2673 23.6131 25.4341 23.7425 25.6036 23.8665C25.617 23.8762 25.6277 23.8892 25.6348 23.9041C25.6419 23.919 25.6453 23.9354 25.6445 23.952C25.6437 23.9685 25.6388 23.9845 25.6303 23.9987C25.6217 24.0129 25.6098 24.0247 25.5956 24.0331C24.7974 24.4918 23.9672 24.8798 23.0957 25.2025C23.0823 25.2073 23.0701 25.215 23.0599 25.2249C23.0497 25.2348 23.0418 25.2468 23.0366 25.2601C23.0314 25.2733 23.0291 25.2875 23.0299 25.3018C23.0306 25.316 23.0344 25.3298 23.0409 25.3425C23.5214 26.2585 24.0714 27.1305 24.676 27.9585C24.6885 27.9755 24.7061 27.9882 24.7261 27.9948C24.7462 28.0015 24.7678 28.0019 24.7881 27.9958C27.6636 27.1313 30.372 25.7875 32.7991 24.0211C32.8109 24.0129 32.8209 24.0022 32.8282 23.9897C32.8356 23.9773 32.8402 23.9635 32.8418 23.9491C33.5092 17.1571 31.7233 11.2558 28.1049 6.02647C28.096 6.00947 28.0813 5.99623 28.0635 5.98914ZM11.6504 20.3705C10.0728 20.3705 8.77143 18.9451 8.77143 17.1971C8.77143 15.4478 10.0474 14.0238 11.6504 14.0238C13.2654 14.0238 14.5548 15.4598 14.5294 17.1971C14.5294 18.9465 13.2534 20.3705 11.6504 20.3705ZM22.2948 20.3705C20.7159 20.3705 19.4158 18.9451 19.4158 17.1971C19.4158 15.4478 20.6905 14.0238 22.2948 14.0238C23.9098 14.0238 25.1992 15.4598 25.1738 17.1971C25.1738 18.9465 23.9112 20.3705 22.2948 20.3705Z" fill="#D7D7D7"/>
</g>
<defs>
<clipPath id="clip0_12_318">
<rect width="32.0333" height="32" fill="white" transform="translate(0.945801)"/>
</clipPath>
</defs>
</svg>
