<svg width="197" height="38" viewBox="0 0 197 38" fill="none" xmlns="http://www.w3.org/2000/svg">
<path d="M194 16.5C195.381 16.5 196.5 17.6193 196.5 19C196.5 20.3807 195.381 21.5 194 21.5V16.5ZM1.23224 20.7678C0.25592 19.7915 0.25592 18.2085 1.23224 17.2322L17.1421 1.32233C18.1185 0.34602 19.7014 0.34602 20.6777 1.32233C21.654 2.29864 21.654 3.88155 20.6777 4.85786L6.53554 19L20.6777 33.1421C21.654 34.1184 21.654 35.7014 20.6777 36.6777C19.7014 37.654 18.1185 37.654 17.1421 36.6777L1.23224 20.7678ZM194 21.5H3V16.5H194V21.5Z" fill="url(#paint0_linear_35_122)"/>
<defs>
<linearGradient id="paint0_linear_35_122" x1="3" y1="19" x2="194" y2="19" gradientUnits="userSpaceOnUse">
<stop stop-color="#FF0000"/>
<stop offset="0.708333" stop-color="#111111"/>
</linearGradient>
</defs>
</svg>
