<svg width="254" height="169" viewBox="0 0 254 169" fill="none" xmlns="http://www.w3.org/2000/svg">
<path d="M29.3076 66.5347H43.6318C46.3602 66.5347 48.4065 67.2154 49.9223 68.35C51.5897 69.7115 52.4991 71.6782 52.4991 74.0987C52.4991 76.8974 51.3623 78.6371 49.0886 79.696V79.8473C52.1202 80.8306 53.8633 83.5537 53.8633 86.8062C53.8633 89.9074 52.6507 92.3279 50.6802 93.8407C49.0128 95.051 46.8907 95.5804 44.0107 95.5804H29.3076V66.5347ZM42.1918 77.8807C43.7076 77.8807 44.8444 77.0486 44.8444 75.3089C44.8444 73.6448 43.7076 72.8128 42.116 72.8128H37.1897V77.805H42.1918V77.8807ZM42.8739 89.151C44.617 89.151 45.9055 88.0921 45.9055 86.2011C45.9055 84.1588 44.5413 83.2511 42.8739 83.2511H37.2655V89.2267H42.8739V89.151ZM55.1517 66.5347H62.6549V95.6561H55.1517V66.5347ZM64.1707 85.2934C64.1707 78.7127 68.4149 74.3256 75.0085 74.3256C81.6022 74.3256 85.7706 78.7884 85.7706 85.2934C85.7706 91.8741 81.6022 96.2612 75.0085 96.2612C68.4149 96.2612 64.1707 91.8741 64.1707 85.2934ZM78.2675 85.2934C78.2675 81.6627 77.1306 79.3935 74.8569 79.3935C72.5833 79.3935 71.5222 81.6627 71.5222 85.2934C71.5222 88.9241 72.5833 91.269 74.8569 91.269C77.1306 91.1933 78.2675 88.9241 78.2675 85.2934ZM86.6043 85.2934C86.6043 78.7127 90.8485 74.3256 97.4421 74.3256C104.036 74.3256 108.128 78.7127 108.128 85.2934C108.128 91.8741 103.96 96.2612 97.3663 96.2612C90.8485 96.2612 86.6043 91.8741 86.6043 85.2934ZM100.701 85.2934C100.701 81.6627 99.5642 79.3935 97.2906 79.3935C95.0169 79.3935 93.9558 81.6627 93.9558 85.2934C93.9558 88.9241 95.0169 91.269 97.2906 91.269C99.5642 91.1933 100.701 88.9241 100.701 85.2934ZM109.644 74.8551H116.617V77.9563H116.768C118.133 75.5358 120.027 74.2499 123.059 74.2499C125.712 74.2499 127.682 75.5358 128.667 77.805H128.819C130.486 75.082 132.684 74.2499 135.261 74.2499C140.111 74.2499 142.158 77.805 142.158 82.5704V95.5804H134.882V83.8562C134.882 81.7383 134.2 80.3768 132.381 80.3768C130.562 80.3768 129.653 82.0409 129.653 84.3101V95.5804H122.377V83.8562C122.377 81.7383 121.695 80.3768 119.876 80.3768C118.057 80.3768 117.147 82.0409 117.147 84.3101V95.5804H109.644V74.8551ZM151.328 92.8574H151.252V95.5804H144.28V66.5347H151.556V76.973H151.707C153.071 75.1576 154.966 74.1743 157.619 74.1743C162.848 74.1743 165.88 78.864 165.88 85.1421C165.88 92.1766 162.621 96.2612 157.164 96.2612C154.89 96.2612 152.541 95.2022 151.328 92.8574ZM158.377 85.0665C158.377 81.7383 157.164 79.5448 154.966 79.5448C152.692 79.5448 151.328 81.7383 151.328 85.0665C151.328 88.3946 152.768 90.5882 154.966 90.5882C157.164 90.5882 158.377 88.4703 158.377 85.0665ZM166.714 85.2178C166.714 78.7127 171.033 74.2499 177.248 74.2499C180.356 74.2499 182.705 75.2333 184.524 76.973C186.949 79.3178 188.01 82.9486 187.934 87.1844H173.989C174.292 89.7562 175.505 91.1177 177.703 91.1177C178.991 91.1177 180.128 90.5126 180.583 89.151H187.631C186.419 93.9164 182.705 96.2612 177.476 96.2612C171.033 96.1856 166.714 91.7984 166.714 85.2178ZM173.989 83.0242H180.659C180.507 80.5281 179.143 79.2422 177.4 79.2422C175.353 79.1666 174.217 80.6037 173.989 83.0242ZM196.195 78.4102H196.347C197.863 75.5358 199.833 74.4012 202.334 74.4012C202.941 74.4012 203.32 74.4769 203.547 74.6281V80.9819H203.395C199.075 80.2255 196.574 82.2678 196.574 86.9575V95.6561H189.223V74.8551H196.195V78.4102ZM204.305 95.6561H211.353C211.657 96.5638 212.566 97.3958 214.309 97.3958C216.659 97.3958 217.492 95.9586 217.492 93.7651V92.2523H217.341C216.204 93.6138 214.612 94.5971 212.339 94.5971C207.867 94.5971 203.926 91.269 203.926 84.7639C203.926 78.7884 207.109 74.1743 211.96 74.1743C214.764 74.1743 216.431 75.3089 217.568 77.0486H217.72V74.7794H224.692V92.7818C224.692 96.1099 223.555 98.6817 221.812 100.194C219.993 101.783 217.416 102.464 214.461 102.464C208.852 102.539 204.987 100.27 204.305 95.6561ZM217.795 84.4614C217.795 81.8896 216.583 79.7717 214.461 79.7717C212.414 79.7717 211.126 81.587 211.126 84.4614C211.126 87.26 212.414 89.2267 214.461 89.2267C216.507 89.2267 217.795 87.1844 217.795 84.4614Z" fill="white"/>
</svg>
