<svg width="321" height="214" viewBox="0 0 321 214" fill="none" xmlns="http://www.w3.org/2000/svg">
<path d="M67.1167 98.1972C66.1927 98.3238 65.2592 98.3667 64.3275 98.3255H56.1667C55.2369 98.3255 54.4983 98.0672 53.4808 98.6612C49.7628 100.831 46.8695 109.25 47.2827 111.032C47.386 111.625 48.8322 111.883 50.0718 111.883H60.7645C61.4449 111.851 62.1201 111.747 62.7789 111.574C63.029 111.506 63.2631 111.389 63.4671 111.23C63.6712 111.07 63.8411 110.871 63.9668 110.644H64.6383L62.6928 114.337C62.4105 114.645 62.0552 114.876 61.6598 115.009C60.8829 115.321 60.0655 115.521 59.2322 115.602H44.237C41.5864 115.607 38.7534 115.763 37.3157 114.336C35.7757 112.809 40.8986 97.3475 46.6129 95.5363C48.4741 94.9458 51.0033 94.9423 53.6375 94.9423H70.0952C69.0622 97.3966 68.6146 97.9123 67.1167 98.1963V98.1972ZM152.171 94.9483H173.502C175.736 94.9148 177.962 95.2018 180.114 95.8006C184.608 97.6084 181.043 106.001 174.846 107.654C172.483 108.347 170.025 108.661 167.564 108.584H161.141L162.949 105.149H165.551C166.827 105.099 168.084 104.828 169.268 104.349C171.798 103.238 172.574 99.0555 171.644 98.5123C170.839 98.1948 169.978 98.0454 169.113 98.0732H163.173L155.176 114.016C155.021 114.43 155.434 114.739 155.692 114.946C156.123 115.324 156.663 115.555 157.234 115.604H147.42C146.872 115.582 146.331 115.468 145.819 115.269C145.561 115.062 145.148 114.932 145.406 114.339L154.074 96.9283C154.487 96.3352 154.074 96.0674 153.768 95.8092C153.361 95.3343 152.792 95.0276 152.171 94.9483ZM184.309 99.2819L185.702 96.0012C185.702 95.7954 186.116 95.5888 186.373 95.5372C186.745 95.4502 187.127 95.4068 187.509 95.408H213.077C214.729 95.408 214.626 95.4597 215.245 95.2789C215.526 95.1789 215.776 95.0077 215.972 94.7822H216.333L214.883 98.0948C214.625 98.353 214.469 98.5596 214.213 98.6113C213.797 98.7532 213.361 98.8231 212.922 98.8179H203.935L196.5 114.772C196.5 114.9 196.758 115.159 196.758 115.237C196.862 115.365 198.095 115.656 197.734 115.656L188.028 115.679C187.728 115.608 187.434 115.513 187.149 115.395C187.019 115.378 186.897 115.318 186.804 115.224C186.711 115.131 186.651 115.01 186.633 114.879L194.482 98.8222H186.373C185.887 98.8009 185.401 98.8441 184.927 98.9504C184.668 99.0796 184.668 99.0796 184.308 99.287L184.309 99.2819ZM213.59 113.382C210.182 110.722 211.576 102.872 219.066 97.9906C223.094 95.3306 229.964 94.8915 233.115 94.9432V98.5071C230.841 98.6362 228.93 98.3005 226.554 99.9533C223.558 102.247 221.516 105.568 220.822 109.276C220.461 112.814 230.48 112.685 232.855 110.852C236.677 108.192 240.242 101.994 238.073 99.5668C237.452 98.8179 235.541 98.508 233.115 98.508V94.9483C238.846 95.0766 247.319 95.2582 247.938 100.268C248.196 103.058 245.562 110.857 239.467 113.284C230.583 116.873 216.895 115.815 213.59 113.387L213.59 113.382ZM253.083 94.9483H261.708C262.293 94.9447 262.873 95.0589 263.413 95.2841C263.73 95.379 264.015 95.5574 264.239 95.8006L271.62 105.279L275.802 96.169C275.81 96.0452 275.791 95.921 275.747 95.8052C275.702 95.6893 275.633 95.5847 275.543 95.4984C275.079 95.1915 274.547 95.0029 273.994 94.9492H281.844C282.434 94.864 283.035 94.9824 283.548 95.2849C283.703 95.4141 283.962 95.6723 283.962 95.8789L275.082 115.609H271.261C270.628 115.583 270.003 115.47 269.401 115.273C269.004 115.189 268.632 115.012 268.316 114.757L259.999 103.287L254.888 114.127C254.884 114.287 254.914 114.445 254.977 114.592C255.039 114.739 255.132 114.871 255.25 114.979C255.711 115.249 256.195 115.476 256.696 115.66L247.812 115.683C247.289 115.656 246.777 115.515 246.314 115.27C246.21 115.141 245.82 115.019 245.952 114.625L254.423 96.0821C254.488 95.9585 254.507 95.8164 254.479 95.68C254.45 95.5436 254.375 95.4213 254.267 95.334C253.905 94.9466 253.648 95.0757 253.079 94.9466L253.083 94.9483ZM127.573 119.642H253.687V120.072H127.573V119.642ZM73.7848 94.9483H95.1667C97.2076 94.8148 99.2529 95.1323 101.157 95.8781C104.979 97.6858 101.829 103.367 99.866 104.917C98.1616 106.183 95.4241 106.57 92.2742 106.725L95.27 111.451C95.4757 111.685 95.7447 111.856 96.0447 111.942C96.4294 112.09 96.8271 112.203 97.2327 112.277H99.4503L98.159 114.931C98.159 115.138 97.7466 115.396 97.4875 115.474C97.0611 115.55 96.6294 115.593 96.1962 115.603H90.0498C89.5087 115.615 88.9688 115.546 88.4486 115.396C88.0862 115.296 87.7623 115.089 87.5189 114.803L83.3351 106.719H82.2505L83.8 103.44H87.9321C88.9038 103.453 89.8739 103.358 90.8245 103.156C94.0785 102.433 94.75 99.2819 93.0455 98.4296C92.1985 98.1439 91.303 98.0298 90.4113 98.0939H83.7483L76.1599 114.596C76.2223 114.846 76.3466 115.077 76.5215 115.267C76.9475 115.452 77.4013 115.566 77.8644 115.603H68.2582C67.8216 115.58 67.3888 115.511 66.9669 115.396C66.5537 115.268 66.5537 114.931 66.5537 114.673L75.0159 96.553C75.1192 96.0365 75.3774 95.8299 74.8609 95.4941C74.5879 95.1775 74.2022 94.9798 73.7857 94.9432L73.7848 94.9483ZM151.121 123.554V124.269H153.868V124.806H151.121V126.153H149.83V123.017H154.239V123.554H151.121ZM160.082 123.017V125.181C160.082 125.456 159.944 125.869 158.903 126.127C158.481 126.215 158.051 126.259 157.62 126.257C157.213 126.259 156.807 126.224 156.406 126.152C155.364 125.865 155.105 125.495 155.105 125.185V123.017H156.396V125.19C156.414 125.387 156.533 125.693 157.584 125.693C158.609 125.693 158.79 125.387 158.79 125.19V123.017H160.082ZM163.981 123.554V126.153H162.689V123.554H160.787V123.017H165.815V123.554H163.981ZM171.555 123.017V125.181C171.555 125.456 171.417 125.869 170.375 126.127C169.953 126.216 169.523 126.259 169.092 126.257C168.685 126.259 168.279 126.224 167.878 126.152C166.836 125.865 166.579 125.495 166.579 125.185V123.017H167.87V125.19C167.887 125.387 168.008 125.693 169.059 125.693C170.083 125.693 170.264 125.387 170.264 125.19V123.017H171.555ZM172.827 123.017H176.314C176.942 123.03 177.58 123.176 177.762 123.516C177.833 123.604 177.877 123.711 177.887 123.823C177.898 123.936 177.874 124.049 177.82 124.148C177.665 124.419 177.39 124.518 176.968 124.643C177.185 124.716 177.597 124.793 177.666 125.073C177.701 125.305 177.721 125.539 177.727 125.774C177.727 125.946 177.831 125.989 177.968 126.032V126.148H176.583C176.493 126.073 176.432 125.97 176.41 125.855C176.392 125.645 176.392 125.433 176.41 125.223C176.391 125.012 176.082 124.909 175.636 124.909H174.119V126.148H172.827V123.017H172.827ZM174.118 124.377H175.883C176.185 124.377 176.727 124.217 176.651 123.907C176.651 123.684 176.444 123.554 175.867 123.554H174.119V124.377H174.118ZM180.324 123.554V124.269H183.33V124.806H180.324V125.615H183.725V126.153H179.032V123.017H183.579V123.554H180.324ZM188.345 126.153H187.054V123.017H188.939L190.111 125.426L191.281 123.017H193.168V126.153H191.876V123.616L190.756 126.153H189.465L188.345 123.616V126.153ZM195.625 123.554V124.269H198.63V124.806H195.625V125.615H199.027V126.153H194.334V123.017H198.88V123.554H195.625ZM200.058 123.017H202.977C203.343 122.999 203.71 123.055 204.055 123.18C204.399 123.306 204.715 123.499 204.985 123.748C205.162 123.936 205.26 124.186 205.258 124.445C205.259 124.669 205.207 124.891 205.107 125.091C205.007 125.292 204.861 125.467 204.682 125.602C204.156 125.966 203.531 126.159 202.891 126.153H200.058V123.017ZM201.349 125.615H202.382C202.624 125.641 202.869 125.617 203.102 125.545C203.334 125.472 203.549 125.353 203.734 125.193C203.891 125.008 203.971 124.77 203.958 124.527C203.964 124.396 203.938 124.265 203.883 124.146C203.827 124.027 203.744 123.923 203.64 123.843C203.308 123.62 202.91 123.518 202.511 123.554H201.349V125.615ZM206.153 123.017H207.444V126.153H206.153V123.017ZM214.054 126.153H212.738L212.308 125.525H209.984L209.544 126.153H208.228L210.414 123.017H211.903L214.055 126.153H214.054ZM210.386 124.992H211.997L211.161 123.775L210.386 124.992ZM214.766 125.525H216.058V126.136C216.077 126.264 216.058 126.6 215.541 126.755C215.291 126.838 215.03 126.887 214.766 126.901V126.661C215.001 126.659 215.228 126.572 215.403 126.416C215.49 126.33 215.541 126.239 215.481 126.158H214.766V125.525ZM219.54 123.017H220.833V126.153H219.54V123.017ZM225.79 123.017H227.081V126.153H225.807L223.268 123.968V126.153H221.975V123.017H223.249L225.79 125.172V123.017ZM233.502 125.082C233.493 125.4 233.132 125.762 232.658 125.943C232.062 126.144 231.437 126.247 230.808 126.249C229.414 126.27 228.44 125.818 228.104 125.16C228.025 124.987 227.984 124.799 227.984 124.609C227.978 124.399 228.029 124.191 228.13 124.006C228.483 123.421 229.231 122.96 230.859 122.96C231.432 122.945 232.003 123.028 232.547 123.206C233.45 123.511 233.494 123.915 233.502 124.074H232.271C232.236 123.902 231.943 123.455 230.687 123.503C230.456 123.495 230.225 123.535 230.01 123.621C229.795 123.707 229.6 123.837 229.438 124.002C229.328 124.163 229.26 124.349 229.239 124.544C229.226 124.661 229.236 124.78 229.27 124.893C229.305 125.007 229.362 125.112 229.438 125.202C229.656 125.428 229.938 125.581 230.246 125.641C230.414 125.676 230.585 125.693 230.756 125.693C230.937 125.695 231.118 125.683 231.297 125.657C232.193 125.533 232.218 125.215 232.254 125.077L233.502 125.082ZM235.661 126.153H234.37V125.525H235.661V126.153ZM107.58 128.064C106.904 128.047 106.252 127.811 105.721 127.393C105.204 126.876 104.688 126.566 105.204 125.482L112.535 111.484L108.136 103.362C97.1173 116.672 92.139 129.824 96.9452 134.495C100.868 138.31 110.258 135.442 120.644 128.064H107.58ZM121.458 103.322L138.283 89.234C138.405 89.1334 138.503 89.0071 138.57 88.8643C138.637 88.7214 138.672 88.5655 138.672 88.4076C138.672 88.2497 138.637 88.0938 138.57 87.9509C138.503 87.8081 138.405 87.6818 138.283 87.5812C137.515 87.082 136.629 86.7926 135.714 86.7419H152.078C152.522 83.5877 152.016 81.0671 150.407 79.503C145.303 74.5445 130.94 80.8863 117.171 93.7767L121.458 103.322Z" fill="white"/>
<path d="M123.937 111.897L117.639 125.313C117.433 126.243 117.949 126.554 118.466 126.915C119.153 127.416 119.932 127.778 120.757 127.983C125.401 124.634 129.736 120.878 133.712 116.759C142.185 108.044 148.249 98.842 150.838 91.5583L123.937 111.897Z" fill="white"/>
</svg>
