<svg xmlns="http://www.w3.org/2000/svg" height="800" width="1200" viewBox="-22.5 -13.546025 195 81.27615"><path d="M15.8226 35.8202V18.4973c0-2.1353.3643-3.7279 1.093-4.7778.7288-1.0498 1.831-1.5748 3.3067-1.5748.8562 0 1.635.2358 2.3364.7073.7014.4716 1.3254 1.1878 1.872 2.1487.9109-.9786 1.9402-1.6993 3.088-2.162 1.1477-.4626 2.4685-.694 3.9624-.694 1.8947 0 3.5708.3381 5.0283 1.0143 1.4574.6762 2.7145 1.6905 3.7712 3.0428 1.3299-1.4413 2.6871-2.4778 4.0717-3.1095 1.3846-.6317 2.9878-.9476 4.8097-.9476 3.1517 0 5.602.9876 7.351 2.9628 1.749 1.9752 2.6234 4.76 2.6235 8.3545v12.3582c0 2.1175-.3645 3.6924-1.0931 4.7244-.7288 1.0321-1.8401 1.5481-3.334 1.5481-1.494 0-2.5961-.5115-3.3066-1.5347-.7106-1.0232-1.0658-2.6025-1.0658-4.7378v-9.7424c0-2.26-.3234-3.9148-.97-4.9647-.6469-1.0498-1.6625-1.5748-3.047-1.5748-1.5305 0-2.6509.516-3.3614 1.5481-.7105 1.0321-1.0658 2.6603-1.0657 4.8846v9.8492c0 2.1175-.3644 3.6924-1.0931 4.7244-.7288 1.0321-1.84 1.5481-3.334 1.5481-1.4939 0-2.6052-.516-3.3339-1.548-.7288-1.0321-1.0931-2.607-1.0931-4.7245v-9.7424c0-2.2777-.3188-3.937-.9565-4.978-.6376-1.041-1.6396-1.5615-3.006-1.5615-1.5303 0-2.6507.516-3.3612 1.5481-.7106 1.0321-1.0658 2.6603-1.0658 4.8846v9.8492c0 2.1175-.3644 3.6924-1.0931 4.7244-.7287 1.0321-1.84 1.5481-3.334 1.5481-1.4938 0-2.6006-.516-3.3202-1.548-.7196-1.0321-1.0795-2.607-1.0794-4.7245zm68.2091 2.2955c-.9656 1.3524-2.1133 2.3622-3.4433 3.0295-1.3299.6673-2.8511 1.001-4.5636 1.001-3.5708 0-6.5905-1.4325-9.059-4.2974-2.4686-2.865-3.703-6.4238-3.703-10.6767 0-4.2884 1.33-7.9007 3.9899-10.8368 2.6598-2.936 5.9027-4.404 9.7285-4.4041 1.494 0 2.8193.2491 3.9762.7473 1.1568.4983 2.1816 1.2724 3.0743 2.3222.4736-.854 1.0612-1.5258 1.7626-2.0152.7014-.4893 1.4165-.734 2.1452-.734 1.5121 0 2.628.5116 3.3476 1.5347.7196 1.0233 1.0794 2.5936 1.0794 4.7111v17.323c0 3.1851-.1594 5.6719-.4782 7.4602-.3188 1.7884-.8517 3.2698-1.5986 4.4442-1.2936 2.1175-3.0744 3.7235-5.3425 4.8178-2.2682 1.0944-4.96 1.6416-8.0753 1.6416-3.8076 0-6.9138-.5962-9.3186-1.7884-2.4048-1.1922-3.6072-2.6958-3.6072-4.5109 0-1.0854.3598-1.984 1.0794-2.6958.7196-.7118 1.626-1.0677 2.719-1.0677.5284 0 1.7991.3826 3.8122 1.1478 2.0132.7651 3.8942 1.1477 5.6431 1.1477 2.1862 0 3.8805-.6317 5.083-1.8951 1.2023-1.2634 1.8035-3.0518 1.8036-5.365 0-.1068-.0094-.2758-.0274-.5072-.0182-.2313-.0273-.4092-.0273-.5338zM72.3902 27.172c0 2.1532.5375 3.897 1.6124 5.2316 1.0748 1.3346 2.4594 2.0019 4.1537 2.0019 1.6943 0 3.088-.6718 4.1811-2.0153 1.093-1.3434 1.6396-3.0828 1.6396-5.2182 0-2.082-.5465-3.7768-1.6396-5.0847-1.0931-1.308-2.4868-1.9619-4.181-1.9619-1.6944 0-3.079.654-4.1538 1.9619-1.075 1.3079-1.6124 3.0028-1.6124 5.0847zm25.8791 2.8027V18.4973c0-2.1175.3643-3.6878 1.093-4.711.7288-1.0232 1.84-1.5348 3.334-1.5348 1.4757 0 2.5733.5116 3.293 1.5347.7196 1.0233 1.0794 2.5936 1.0794 4.7111v9.7158c0 2.2955.3552 3.9192 1.0657 4.8712.7105.952 1.8674 1.428 3.4706 1.428 1.6032 0 2.76-.476 3.4706-1.428.7105-.952 1.0657-2.5757 1.0658-4.8712v-9.7158c0-2.1175.3598-3.6878 1.0794-4.711.7196-1.0232 1.8355-1.5348 3.3476-1.5348 1.4757 0 2.5687.5072 3.2793 1.5214.7105 1.0143 1.0657 2.5891 1.0658 4.7244v11.4774c0 4.0928-1.1387 7.2201-3.416 9.3822-2.2773 2.162-5.5748 3.243-9.8925 3.243s-7.6198-1.081-9.9062-3.243c-2.2864-2.162-3.4295-5.2894-3.4295-9.3822zm32.6562 5.8455V18.4973c0-2.1175.3598-3.6878 1.0794-4.711.7196-1.0232 1.8264-1.5348 3.3203-1.5348.8927 0 1.6852.2269 2.3775.6806.6923.4538 1.3026 1.1433 1.831 2.0686.9108-.9609 1.8764-1.686 2.8966-2.1754 1.0202-.4893 2.0496-.734 3.088-.734 1.2206 0 2.2727.4227 3.1563 1.2679.8836.8452 1.3254 1.8462 1.3254 3.0028 0 1.726-1.6214 3.1674-4.8643 4.324-1.166.4093-2.0404.7474-2.6234 1.0143-1.1113.516-1.8492 1.09-2.2135 1.7216-.3644.6318-.5466 1.775-.5466 3.43v8.9683c0 2.1175-.3643 3.6924-1.093 4.7244-.7288 1.0321-1.8401 1.5481-3.334 1.5481s-2.6007-.516-3.3203-1.548c-.7196-1.0321-1.0794-2.607-1.0794-4.7245zm-121.4702 0c0 2.1353-.3553 3.7146-1.0658 4.7378-.7105 1.0232-1.8036 1.5347-3.2793 1.5347-1.4939 0-2.6052-.516-3.334-1.548-.7287-1.0321-1.093-2.607-1.093-4.7245V18.4973c0-2.1175.3598-3.6878 1.0794-4.711.7196-1.0232 1.8355-1.5348 3.3476-1.5348 1.4757 0 2.5688.5116 3.2793 1.5347.7105 1.0233 1.0658 2.5936 1.0658 4.7111z" fill='#fff'/><path d="M0 4.9913c0-1.37.501-2.5445 1.503-3.5233C2.505.4894 3.7074 0 5.1102 0 6.4948 0 7.679.4894 8.6628 1.468c.9837.9788 1.4756 2.1532 1.4757 3.5233 0 1.388-.4874 2.5625-1.462 3.5233-.9747.961-2.1635 1.4414-3.5663 1.4414-1.4392 0-2.6507-.4804-3.6345-1.4414C.4919 7.5538 0 6.3794 0 4.9913z" fill="#89c623"/></svg>